<svg xmlns="http://www.w3.org/2000/svg" width="21" height="21" aria-hidden="true" class="game-icon" data-testid="icon-settings" viewBox="2 2 28 28"><path fill="var(--color-tone-1)" d="M26.8666 17.3372c.0514-.4286.0857-.8743.0857-1.3372s-.0343-.9086-.1029-1.3372l2.8972-2.2629c.2572-.2057.3258-.5828.1715-.8743l-2.7429-4.74867c-.1715-.30857-.5315-.41143-.8401-.30857l-3.4115 1.37146c-.72-.54859-1.4743-.99431-2.3143-1.33718l-.5143-3.63437c-.0514-.34286-.3429-.58287-.6857-.58287h-5.4859c-.3428 0-.6171.24001-.6686.58287l-.5143 3.63437c-.84.34287-1.6114.80574-2.3143 1.33718L7.01469 6.46836c-.30858-.12001-.66859 0-.84002.30857L3.43175 11.5256c-.17144.3086-.10286.6686.17143.8743l2.89721 2.2629c-.06857.4286-.12.8915-.12 1.3372s.03428.9086.10286 1.3372l-2.89722 2.2629c-.25714.2057-.32572.5829-.17143.8743l2.74292 4.7487c.17144.3086.53144.4114.84002.3086l3.41156-1.3715c.72.5486 1.4743.9943 2.3143 1.3372l.5143 3.6343c.0686.3429.3429.5829.6857.5829h5.4859c.3428 0 .6343-.24.6686-.5829l.5142-3.6343c.8401-.3429 1.6115-.8058 2.3144-1.3372l3.4115 1.3715c.3086.12.6686 0 .84-.3086l2.7429-4.7487c.1715-.3086.1029-.6686-.1714-.8743zM16.6663 21.143c-2.8286 0-5.1429-2.3144-5.1429-5.143s2.3143-5.143 5.1429-5.143c2.8287 0 5.143 2.3144 5.143 5.143s-2.3143 5.143-5.143 5.143"/></svg>