<svg xmlns="http://www.w3.org/2000/svg" width="21" height="21" aria-hidden="true" class="game-icon" data-testid="icon-forum" viewBox="0 0 24 24"><path fill="var(--color-tone-1)" d="M15.4538 15.0078C17.2881 13.8544 18.5 11.818 18.5 9.5 18.5 5.91015 15.5899 3 12 3 8.41015 3 5.5 5.91015 5.5 9.5c0 2.318 1.21194 4.3544 3.04624 5.5078C9.37338 15.5279 10 16.4687 10 17.6014V20h4v-2.3986c0-1.1327.6266-2.0735 1.4538-2.5936m1.0646 1.6931c-.3124.1965-.5184.5314-.5184.9005V20c0 1.1046-.8954 2-2 2h-4c-1.10457 0-2-.8954-2-2v-2.3986c0-.3691-.20596-.704-.51837-.9005C5.08971 15.1969 3.5 12.5341 3.5 9.5 3.5 4.80558 7.30558 1 12 1c4.6944 0 8.5 3.80558 8.5 8.5 0 3.0341-1.5897 5.6969-3.9816 7.2009M8 17h8v4c0 1.1046-.8954 2-2 2h-4c-1.10457 0-2-.8954-2-2z"/></svg>