<svg xmlns="http://www.w3.org/2000/svg" width="22" height="22" aria-hidden="true" class="game-icon" data-testid="icon-help" viewBox="2 2 28 28"><path fill="var(--color-tone-1)" d="M15 24h2.6667v-2.6667H15zm1.3333-21.33334C8.97333 2.66666 3 8.63999 3 16c0 7.36 5.97333 13.3333 13.3333 13.3333 7.36 0 13.3334-5.9733 13.3334-13.3333 0-7.36001-5.9734-13.33334-13.3334-13.33334m0 24.00004c-5.88 0-10.66663-4.7867-10.66663-10.6667S10.4533 5.33332 16.3333 5.33332 27 10.12 27 16s-4.7867 10.6667-10.6667 10.6667m0-18.66671C13.3867 7.99999 11 10.3867 11 13.3333h2.6667c0-1.4666 1.2-2.6666 2.6666-2.6666 1.4667 0 2.6667 1.2 2.6667 2.6666C19 16 15 15.6667 15 20h2.6667c0-3 4-3.3333 4-6.6667 0-2.9466-2.3867-5.33331-5.3334-5.33331"/></svg>