<svg xmlns="http://www.w3.org/2000/svg" width="21" height="21" aria-hidden="true" class="game-icon" data-testid="icon-menu" viewBox="-1 -1 24 24"><path fill="var(--color-tone-1)" d="M3.93428 18.2929c-.31922 0-.58861-.1098-.80818-.3293-.21956-.2196-.32935-.489-.32935-.8082s.10979-.5886.32935-.8081c.21957-.2196.48896-.3294.80818-.3294H20.0658q.4788 0 .8082.3294c.2195.2195.3293.4889.3293.8081s-.1098.5886-.3293.8082c-.2196.2195-.489.3293-.8082.3293zm0-5.1554c-.31922 0-.58861-.1098-.80818-.3294-.21956-.2195-.32935-.4889-.32935-.8081s.10979-.5886.32935-.8082c.21957-.2195.48896-.3293.80818-.3293H20.0658c.3192 0 .5886.1098.8082.3293.2195.2196.3293.489.3293.8082s-.1098.5886-.3293.8081q-.3294.3294-.8082.3294zm0-5.15544c-.31922 0-.58861-.10979-.80818-.32935-.21956-.21957-.32935-.48896-.32935-.80818 0-.3192.10979-.58858.32935-.80815.21957-.21957.48896-.32935.80818-.32935H20.0658c.3192 0 .5886.10978.8082.32935.2195.21957.3293.48895.3293.80815 0 .31922-.1098.58861-.3293.80818-.2196.21956-.489.32935-.8082.32935z"/></svg>