<svg xmlns="http://www.w3.org/2000/svg" viewBox="0 0 1024 1024">
  <g transform="rotate(180 512 512)">
    <path fill="#000" d="M895.47.7H128.53C57.97.7.71 57.96.71 128.52v766.95c0 70.56 57.25 127.83 127.82 127.83h766.93c70.57 0 127.82-57.26 127.82-127.83V128.52c0-70.56-57.25-127.83-127.82-127.83ZM537.56 51.83h191.75v191.74H537.56V51.83ZM51.82 128.52c0-42.25 34.46-76.7 76.71-76.7h357.91v191.74H51.82v-115.04ZM51.82 294.69h677.49v191.74H51.82v-191.74ZM486.44 537.56v191.74h-191.75v-191.74h191.75ZM243.58 972.17h-115.04c-42.25 0-76.71-34.45-76.71-76.7v-115.04h191.75v191.74ZM243.58 729.3H51.82v-191.74h191.75v191.74ZM972.18 895.47c0 42.25-34.46 76.7-76.71 76.7H294.69v-191.74h677.49v115.04ZM972.18 729.3h-434.62v-191.74h434.62v191.74ZM972.18 486.43h-191.75v-191.74h191.75v191.74ZM972.18 243.56h-191.75V51.83h115.04c42.25 0 76.71 34.44 76.71 76.7v115.04Z"/>
    <path fill="#dabc45" d="M243.58 780.43v191.74h-115.04c-42.25 0-76.71-34.44-76.71-76.69v-115.04h191.75Z"/>
    <path fill="#dabc45" d="M486.44 537.56h-191.75v191.74h191.75v-191.74Z"/>
    <path fill="#dabc45" d="M972.18 294.7h-191.75v191.74h191.75v-191.74Z"/>
    <path fill="#dabc45" d="M729.31 51.83h-191.75v191.74h191.75V51.83Z"/>
    <path fill="#7bb677" d="M972.18 128.52v115.04h-191.75V51.83h115.04c42.25 0 76.71 34.44 76.71 76.7Z"/>
    <path fill="#7bb677" d="M243.58 537.56H51.82v191.74h191.75v-191.74Z"/>
    <path fill="#7bb677" d="M972.18 780.43v115.04c0 42.25-34.46 76.69-76.71 76.69H294.69v-191.74h677.49Z"/>
    <path fill="#7bb677" d="M972.18 537.56h-434.62v191.74h434.62v-191.74Z"/>
    <path fill="#7bb677" d="M729.31 294.7H51.82v191.74h677.49v-191.74Z"/>
    <path fill="#7bb677" d="M486.44 51.83v191.74H51.82v-115.04c0-42.25 34.46-76.7 76.71-76.7h357.91Z"/>
  </g>
</svg>