<svg xmlns="http://www.w3.org/2000/svg" viewBox="0 0 1024 1024">
  <path fill="#fff" d="M87.14,72.31v168.32l227.41-168.32H87.14Z"/>
  <path fill="#dabc45" d="M314.55,72.31L87.14,240.63v485.35L360.49,72.31h-45.95Z"/>
  <path fill="#dabc45" d="M959.38,944.59v-490.81l-429.62,490.81h429.62Z"/>
  <path fill="#a6caa2" d="M959.38,433.19V72.31h-176.66l-163.66,493.7,340.31-132.82Z"/>
  <path fill="#a6caa2" d="M87.14,809.19v135.39h406.52l125.41-378.55L87.14,809.19Z"/>
  <path fill="#fff" d="M619.07,565.99l-125.46,378.55h36.15l429.62-490.81v-20.56l-340.31,132.82Z"/>
  <path fill="#7bb677" d="M782.72,72.31h-422.23L87.14,725.97v83.2l531.93-243.16,163.66-493.7Z"/>
  <path fill="#000" d="M1013.52,427.58c-3.92-3.77-8.73-6.49-13.98-7.89-5.25-1.41-10.77-1.46-16.07-.14V48.22h-167.98c.71-5.92-.8-11.88-4.23-16.75-3.43-4.87-8.55-8.29-14.38-9.61-5.79-1.32-11.89-.44-17.1,2.48-5.21,2.91-9.13,7.65-11.04,13.29l-3.52,10.6h-371.17c0-4.76-1.07-9.46-3.07-13.77-2.05-4.31-4.99-8.11-8.68-11.13-5.61-4.86-12.78-7.62-20.21-7.79-7.43-.18-14.69,2.24-20.57,6.83l-34.86,25.86H63.05v180.36l-49.64,36.78c-3.16,1.56-5.92,3.8-8.15,6.56-2.18,2.76-3.74,5.96-4.59,9.39-.85,3.43-.89,7-.18,10.45.71,3.46,2.14,6.71,4.27,9.55,2.09,2.83,4.81,5.17,7.88,6.84,3.12,1.67,6.54,2.65,10.06,2.85,3.52.2,7.03-.37,10.33-1.68,3.29-1.31,6.23-3.32,8.64-5.9l21.06-16.06v433.64l-32.14,76.61c-2.72,5.17-4.01,11-3.65,16.84.31,5.84,2.27,11.48,5.57,16.3,3.29,4.83,7.88,8.66,13.18,11.08,5.34,2.43,11.22,3.35,17.05,2.68v124.15h397.48l-.98,2.89v4.01c-.13,7.56,2.4,14.93,7.17,20.8s11.44,9.88,18.88,11.32c6.37,1.44,13,.9,19.06-1.54,6.05-2.44,11.22-6.66,14.83-12.11l23.46-24.57h440.84v-464.15l35.48-37.26,2.4-4.02c2.67-6.14,3.34-12.96,1.91-19.49-1.42-6.54-4.81-12.47-9.75-16.97ZM935.3,438.34l-287.51,117.24,152.26-459.17h135.25v341.93ZM928.53,493.1l-398.95,419.34,98.3-296.64,300.65-122.7ZM589.19,579.51l-477.97,194.98v-43.68L376.56,96.41h372.73l-160.1,483.1ZM111.22,96.41h130.4l-130.4,96.36v-96.36ZM111.22,252.84l211.21-156.43h1.91l-213.12,509.44V252.84ZM111.22,920.48v-93.96l458.03-186.79-93.14,280.74H111.22ZM935.3,920.48h-346.77l346.77-364.58v364.58Z"/>
</svg>