<svg xmlns="http://www.w3.org/2000/svg" viewBox="0 0 100 100">
  <g>
    <path d="M93.5 20.1c0 2.7-.9 5.2-2.5 7.3l-.1.2c-.4.5-.8 1-1.3 1.4v41.3c0 3.7-2.5 6.9-6 7.7-3.5.9-7.3-.7-9-3.9L62.2 51.3c-.3 2.2-1.1 4.3-2.5 6.1l-.1.2c-.4.5-.9 1-1.5 1.5v28.5c0 3.5-2.2 6.7-5.6 7.8-.8.3-1.6.4-2.4.4-2.8 0-5.5-1.5-7-4.1L26.5 62.1v8.6c2.4 2.2 4 5.4 4 8.9 0 6.6-5.4 12-12 12s-12-5.4-12-12c0-3.6 1.6-6.8 4-9V31.9c0-3 1.5-5.9 4.2-7.3 4-2.1 8.7-.6 10.8 3.1l12.2 21.6c.1-2.7 1.1-5.4 2.9-7.5l.2-.2c.4-.5.9-.9 1.4-1.4v-28c0-3.7 2.5-6.9 6-7.7 3.5-.9 7.3.7 9 3.9l16.4 30.2V29c-.6-.6-1.2-1.2-1.7-1.9l-.2-.1c-1.4-2-2.2-4.4-2.2-6.9 0-6.6 5.4-12 12-12 6.7 0 12 5.4 12 12z"/>
    <path fill="#dabc45" d="M85.6 31.3v38.6c0 1.5-.7 2.9-2 3.7-2 1.2-4.5.4-5.5-1.5L55.4 30.8c-.3-.6-1.2-.4-1.2.3v7c-2.6-.9-5.4-1-8-.1V12c0-1.8 1.2-3.4 3-3.9 1.8-.4 3.6.4 4.5 2l22.6 41.2c.3.6 1.3.4 1.3-.3V31.3c1.3.5 2.6.7 3.9.7 1.4 0 2.8-.3 4.1-.7z"/>
    <path fill="#7bb677" d="M54.2 61.4v26.3c0 1.8-1.2 3.4-3 3.9-.3.1-.7.1-1 .1-1.4 0-2.8-.8-3.5-2l-22.9-40c-.3-.6-1.2-.4-1.2.3v18.3c-1.3-.5-2.6-.7-4-.7s-2.7.2-4 .7V31.6c0-1.8 1.2-3.4 3-3.9s3.6.3 4.5 1.9l22.9 40c.3.6 1.3.3 1.3-.3v-7.8c1.2.4 2.5.6 3.8.6 1.3 0 2.7-.2 4.1-.7z"/>
    <circle fill="#fff" cx="50" cy="49.9" r="8"/>
    <circle fill="#fff" cx="81.5" cy="20.1" r="8"/>
    <circle fill="#fff" cx="18.5" cy="79.7" r="8"/>
  </g>
</svg>