<svg xmlns="http://www.w3.org/2000/svg" viewBox="0 0 64 64">
  <rect width="64" height="64" rx="4" fill="#000"/>

  <!-- white tiles -->
  <path fill="#fff" d="M3.2406 8.101C3.2406 5.42219 5.41169 3.24023 8.1014 3.24023H15.4571V15.4678H3.2406V8.101Z"/>
  <rect fill="#fff" x="18.1578" y="3.24048" width="12.4869" height="12.2273"/>
  <rect fill="#fff" x="33.3448" y="3.24048" width="12.4868" height="12.2273"/>

  <rect fill="#fff" x="3.2406" y="18.1685" width="12.2167" height="12.4867"/>
  <rect fill="#fff" x="33.3448" y="18.1685" width="12.4868" height="12.4867"/>
  <rect fill="#fff" x="48.5323" y="18.1685" width="12.2274" height="12.4867"/>

  <rect fill="#fff" x="3.2406" y="33.3552" width="12.2167" height="12.4868"/>
  <rect fill="#fff" x="18.1578" y="33.3552" width="12.4869" height="12.4868"/>
  <rect fill="#fff" x="48.5323" y="33.3552" width="12.2274" height="12.4868"/>

  <rect fill="#fff" x="18.1578" y="48.5422" width="12.4869" height="12.2167"/>
  <rect fill="#fff" x="33.3448" y="48.5422" width="12.4868" height="12.2167"/>
  <path fill="#fff" d="M48.5323 48.5422H60.7597V55.8981C60.7597 58.5769 58.5777 60.7589 55.8989 60.7589H48.5323V48.5422Z"/>

  <!-- green tiles -->
  <path fill="#7bb677" d="M48.5323 3.24048H55.8989C58.5777 3.24048 60.7597 5.42244 60.7597 8.10125V15.4678H48.5323V3.24048Z"/>
  <rect fill="#7bb677" x="18.1578" y="18.1685" width="12.4869" height="12.4867"/>

  <!-- gold tiles -->
  <rect fill="#dabc45" x="33.3448" y="33.3552" width="12.4868" height="12.4868"/>
  <path fill="#dabc45" d="M3.2406 48.5422H15.4573V60.7589H8.1014C5.41169 60.7589 3.2406 58.5769 3.2406 55.8981V48.5422Z"/>
</svg>