<svg xmlns="http://www.w3.org/2000/svg" viewBox="0 0 64 64">
  <rect width="64" height="64" rx="4" fill="#000"/>

  <!-- white tiles -->
  <path fill="#fff" d="M8.10137 3.24052H20.2353V20.2468H3.24058V8.10131C3.24058 5.421 5.42106 3.24052 8.10137 3.24052Z"/>
  <rect fill="#fff" x="23.4756" y="3.24052" width="17.0496" height="17.0063"/>
  <rect fill="#fff" x="3.24058" y="23.4873" width="16.9947" height="17.0252"/>
  <rect fill="#fff" x="43.7657" y="23.4873" width="16.9936" height="17.0252"/>
  <rect fill="#fff" x="23.4758" y="43.753" width="17.0496" height="17.0063"/>
  <path fill="#fff" d="M43.7657 43.753H60.7593V55.8985C60.7593 58.5788 58.5789 60.7593 55.8985 60.7593H43.7657V43.753Z"/>

  <!-- green tiles -->
  <path fill="#7bb677" d="M43.7657 3.24052H55.8985C58.5789 3.24052 60.7593 5.421 60.7593 8.10131V20.2468H43.7657V3.24052Z"/>
  <rect fill="#7bb677" x="23.4756" y="23.4873" width="17.0498" height="17.0252"/>
  <path fill="#7bb677" d="M3.24058 43.753H20.2353V60.7593H8.10137C5.42106 60.7593 3.24058 58.5788 3.24058 55.8985V43.753Z"/>
</svg>