<?xml version="1.0" encoding="UTF-8"?>
<svg id="Layer_1" data-name="Layer 1" xmlns="http://www.w3.org/2000/svg" viewBox="0 0 1024 1024">
  <defs>
    <style>
      .cls-1 {
        fill: #7bb677;
      }

      .cls-1, .cls-2, .cls-3, .cls-4, .cls-5 {
        stroke-width: 0px;
      }

      .cls-2 {
        fill: #5f9f73;
      }

      .cls-3 {
        fill: #000;
      }

      .cls-4 {
        fill: #dabc45;
      }

      .cls-5 {
        fill: #fff;
      }
    </style>
  </defs>
  <path class="cls-2" d="M604.2,802.52c-24.35,24.05-57.17,37.54-91.36,37.54s-67-13.49-91.31-37.54l-23.24-23.22c-36.2,14.97-75.11,22.29-114.27,21.49,14.4,49.51,44.55,92.97,85.86,123.81,41.36,30.84,91.58,47.37,143.18,47.09,51.56-.28,101.64-17.35,142.65-48.63,40.96-31.29,70.66-75.07,84.55-124.73-38.2.76-76.13-6.16-111.57-20.34l-24.49,24.52Z"/>
  <path class="cls-2" d="M901.83,341.69c-28.36-28.16-63.49-48.61-102-59.43.67,39.12-6.54,77.97-21.19,114.24l24.35,24.38c24.09,24.3,37.58,57.12,37.58,91.31s-13.49,67-37.58,91.31l-23.77,23.8c13.76,34.2,20.88,70.73,20.93,107.61.04,1.01.04,2.02,0,3.03,39.8-11.31,75.95-32.85,104.89-62.48,28.89-29.63,49.51-66.32,59.84-106.4,10.28-40.09,9.88-82.17-1.11-122.06-11.04-39.89-32.32-76.2-61.75-105.3h-.18Z"/>
  <path class="cls-2" d="M244.34,625.59l-22.22-21.49c-24.05-24.3-37.54-57.12-37.54-91.31s13.49-67,37.54-91.31l22.65-22.64c-14.57-35.02-22.02-72.57-21.93-110.5v-3.03c-49.58,14.08-93.22,43.95-124.29,85.06-31.07,41.12-47.88,91.25-47.88,142.78s16.81,101.66,47.88,142.78c31.07,41.12,74.71,70.99,124.29,85.07v-5.48c-.14-37.7,7.16-75.05,21.49-109.92h0Z"/>
  <path class="cls-2" d="M397.44,245.73l23.82-23.8c11.93-12.03,26.18-21.57,41.85-28.09,15.67-6.51,32.5-9.87,49.46-9.87s33.79,3.35,49.46,9.87c15.67,6.51,29.87,16.06,41.85,28.09l21.5,21.49c36.02-14.9,74.71-22.26,113.71-21.64-11.13-38.21-31.74-72.96-60.01-100.97-29.3-29.25-65.76-50.33-105.74-61.12-39.98-10.8-82.1-10.95-122.12-.43-40.07,10.52-76.67,31.33-106.18,60.38-29.47,29.04-50.88,65.31-62.02,105.18h4.76c37.58-.18,74.8,6.92,109.66,20.92h0Z"/>
  <path class="cls-5" d="M274.78,276.17v11.54c-.01,23.81,3.53,47.49,10.53,70.25l72.15-72.12c-26.76-8.08-54.77-11.36-82.68-9.66h0Z"/>
  <path class="cls-5" d="M669.11,737.32c25.64,7.45,52.36,10.57,79.07,9.23v-11.69c0-22.75-3.25-45.39-9.66-67.22l-69.41,69.67Z"/>
  <path class="cls-5" d="M748.45,273.59c-27.69-1.37-55.43,2.15-81.92,10.39l72.12,72.12c8.06-26.72,11.4-54.65,9.79-82.51h0Z"/>
  <path class="cls-5" d="M274.95,749.03c27.86,1.38,55.76-2.13,82.38-10.39l-72.14-72.12c-6.71,22.37-10.12,45.6-10.1,68.95-.57,4.19-.43,8.8-.14,13.56Z"/>
  <path class="cls-1" d="M579.8,267.1l-.89-1.01v1.44l.89-.43Z"/>
  <path class="cls-1" d="M582.39,754.66l-1.42-1.01-1.87,4.47,3.29-3.46Z"/>
  <path class="cls-1" d="M679.04,567.47c-13.04-12.93-27.56-24.31-43.27-33.9-4.45,25.29-16.52,48.62-34.55,66.91-18.03,18.29-41.23,30.67-66.43,35.51,9.62,15.48,21.06,29.76,34.06,42.55,15.36,15.15,32.72,28.11,51.64,38.52l24.66-24.81,43.27-43.27,28.85-28.85c-10.28-19.21-23.15-36.92-38.24-52.65h0Z"/>
  <path class="cls-1" d="M706.47,393.64l-79.92-79.91-8.95-8.94c-34.77,19.6-63.93,47.82-84.68,81.93,25.6,4.36,49.24,16.49,67.72,34.73,18.48,18.24,30.9,41.72,35.57,67.26,33.79-20.8,61.71-49.9,81.07-84.53l-10.82-10.53Z"/>
  <path class="cls-1" d="M454.39,344.38c-14.69-14.45-31.25-26.91-49.2-37.07l-10.95,11.11-86.56,86.55-1.15,1.15c19.42,33.77,47.02,62.13,80.24,82.51,4.63-25.33,16.87-48.65,35.08-66.84,18.21-18.2,41.58-30.4,66.92-35-9.75-15.42-21.28-29.66-34.37-42.41h0Z"/>
  <path class="cls-1" d="M386.76,533.57c-33.79,20.98-61.71,50.22-81.09,84.96l5.77,5.77,85.11,84.96,9.13,9.23c18.52-10.48,35.57-23.44,50.62-38.52,12.82-13.08,24.13-27.6,33.61-43.27-25.73-4.44-49.46-16.74-67.94-35.21-18.48-18.46-30.76-42.19-35.22-67.93h0Z"/>
  <path class="cls-4" d="M512.58,233.05c-21.28.04-41.67,8.5-56.72,23.51l-12.82,12.84c17.19,10.97,33.17,23.68,47.73,37.94,6.95,6.92,13.45,14.43,19.77,21.78,6.1-7.68,12.6-14.99,19.5-21.93,14.96-14.97,31.48-28.27,49.33-39.67v-1.44l-9.66-9.52c-7.48-7.5-16.38-13.44-26.22-17.48-9.79-4.04-20.3-6.09-30.9-6.04Z"/>
  <path class="cls-4" d="M512.44,693.65c-6.14,7.6-12.64,14.87-19.5,21.78-14.96,15.11-31.57,28.51-49.51,39.96l12.42,12.55c15.09,14.95,35.48,23.35,56.72,23.35s41.63-8.39,56.68-23.35l9.84-9.81,1.87-4.47c-17.63-11.06-34.01-23.97-48.93-38.52-6.9-6.82-13.45-13.99-19.59-21.49Z"/>
  <path class="cls-4" d="M755.66,581.52l12.69-12.7c14.96-15.07,23.37-35.45,23.37-56.69s-8.41-41.61-23.37-56.69l-13.4-13.27c-16.43,26.25-37.09,49.6-61.17,69.1,7.61,6.16,14.87,12.7,21.77,19.62,15.27,15.32,28.72,32.3,40.11,50.63h0Z"/>
  <path class="cls-4" d="M268.72,443.65l-11.98,11.83c-14.96,15.07-23.36,35.45-23.36,56.69s8.39,41.61,23.36,56.69l11.4,11.26c11.26-17.78,24.41-34.27,39.25-49.19,6.93-6.91,14.19-13.46,21.8-19.62-7.61-6.16-14.87-12.71-21.8-19.62-14.51-14.63-27.47-30.73-38.67-48.04h0Z"/>
  <path class="cls-5" d="M589.73,511.28c0-15.49-4.59-30.64-13.18-43.52-8.59-12.88-20.84-22.92-35.17-28.85-14.29-5.93-30.05-7.48-45.28-4.46-15.18,3.02-29.12,10.48-40.11,21.44-10.95,10.95-18.39,24.91-21.41,40.11-3.03,15.2-1.47,30.94,4.45,45.26,5.92,14.31,15.98,26.54,28.85,35.15,12.87,8.61,28.05,13.2,43.54,13.2,20.75,0,40.69-8.25,55.38-22.94,14.69-14.69,22.93-34.61,22.93-55.38Z"/>
  <path class="cls-3" d="M938.02,305.03c-39.49-39.32-89.62-66.2-144.25-77.32-13.98-64.7-49.73-122.63-101.33-164.09C640.84,22.16,576.55-.3,510.35,0c-66.2.3-130.27,23.36-181.51,65.29-51.2,41.93-86.44,100.19-99.79,165.02-64.77,13.65-122.88,49.15-164.58,100.55C22.76,382.26,0,446.42,0,512.61s22.76,130.35,64.46,181.75c41.7,51.4,99.81,86.9,164.58,100.55,13.68,65.01,49.38,123.3,101.08,165.04,51.69,41.74,116.2,64.36,182.63,64.06,66.43-.3,130.76-23.52,182.05-65.73,51.29-42.22,86.46-100.83,99.55-165.96,51.02-10.64,98.21-34.9,136.55-70.21,38.38-35.31,66.43-80.34,81.21-130.32,14.83-49.98,15.8-103.03,2.85-153.51-12.96-50.49-39.31-96.53-76.35-133.23h-.58ZM738.08,355.95l-72.17-72.12c26.71-8.26,54.67-11.72,82.54-10.24,1.38,27.85-2.14,55.73-10.37,82.37ZM396.55,708.5l-85.12-84.96-5.77-5.77c19.48-34.47,47.39-63.46,81.1-84.24,4.54,25.63,16.87,49.23,35.35,67.58,18.48,18.36,42.12,30.57,67.81,34.98-9.53,15.67-20.79,30.19-33.61,43.27-15.05,15.07-32.1,28.03-50.67,38.52l-9.08-9.38ZM510.53,329.12c-6.32-7.65-12.82-14.42-19.77-21.78-14.56-14.25-30.54-26.97-47.73-37.94l12.82-12.84c7.44-7.46,16.3-13.38,26-17.41,9.75-4.04,20.17-6.12,30.72-6.12s20.97,2.08,30.68,6.12c9.75,4.04,18.57,9.96,26,17.41l9.66,9.52.89,1.01c-17.85,11.39-34.42,24.7-49.37,39.67-7.03,7.05-13.71,14.52-19.9,22.36h0ZM589.73,511.31c.04,15.5-4.54,30.66-13.13,43.56-8.59,12.9-20.79,22.96-35.13,28.91-14.29,5.95-30.05,7.52-45.28,4.52-15.18-3.01-29.16-10.45-40.11-21.41-11-10.95-18.48-24.9-21.5-40.1-3.03-15.2-1.47-30.96,4.45-45.27,5.92-14.32,15.94-26.56,28.85-35.18,12.87-8.61,28.05-13.21,43.54-13.21,20.75,0,40.65,8.23,55.34,22.89,14.69,14.66,22.97,34.54,22.97,55.29h0ZM454.43,344.41c13.04,13.03,24.53,27.56,34.19,43.27-25.2,4.56-48.44,16.66-66.6,34.68-18.21,18.03-30.5,41.14-35.26,66.29-33.35-20.53-60.99-49.1-80.37-83.09l1.15-1.15,86.57-86.55,10.95-11.11c18.03,10.33,34.64,22.99,49.37,37.65ZM492.94,715.71c6.86-6.91,13.36-14.18,19.46-21.78,6.19,7.4,12.73,14.48,19.63,21.21,14.83,14.54,31.21,27.45,48.75,38.52l1.47,1.01-3.34,3.46-9.79,9.81c-15.09,14.96-35.48,23.35-56.72,23.35s-41.63-8.39-56.68-23.35l-12.42-12.55c17.99-11.44,34.64-24.84,49.64-39.96v.29ZM568.54,678.78c-13-12.79-24.44-27.07-34.06-42.55,25.24-4.84,48.4-17.22,66.43-35.51,18.03-18.28,30.1-41.62,34.59-66.91,34.28,20.75,62.73,49.89,82.68,84.67l-28.89,28.85-43.27,43.27-24.66,24.81c-19.19-9.83-37-22.25-52.8-36.93v.28ZM636.21,488.66c-4.63-25.62-17.01-49.19-35.48-67.52-18.48-18.33-42.16-30.51-67.81-34.9,20.7-34.12,49.91-62.33,84.68-81.93l8.95,8.95,79.92,79.91,10.82,10.96c-19.37,34.64-47.28,63.74-81.07,84.53h0ZM344.46,120.25c44.48-44.42,104.76-69.38,167.58-69.38s123.15,24.95,167.58,69.38c28.27,28.01,48.93,62.76,60.01,100.97-39.18-.52-78.09,7.04-114.24,22.21l-21.24-21.49c-11.93-12.03-26.18-21.57-41.85-28.09-15.67-6.51-32.5-9.87-49.46-9.87s-33.79,3.35-49.46,9.87c-15.67,6.51-29.87,16.06-41.85,28.09l-23.82,23.8c-34.82-14.19-72.04-21.49-109.65-21.49h-4.76c11-39.4,32.1-75.25,61.17-104h0ZM274.78,276.18c27.75-1.48,55.52,1.94,82.1,10.1l-72.14,72.13c-7-22.76-10.55-46.44-10.53-70.25.29-4.33.43-8.22.57-11.97ZM222.84,734.89v5.48c-49.58-14.08-93.22-43.95-124.29-85.06-31.07-41.12-47.88-91.25-47.88-142.78s16.81-101.66,47.88-142.78c31.07-41.12,74.71-70.98,124.29-85.07v3.03c-.09,37.92,7.37,75.48,21.93,110.49l-22.65,22.65c-24.05,24.3-37.54,57.12-37.54,91.31s13.49,67,37.54,91.31l22.22,22.07c-14.26,34.69-21.57,71.84-21.5,109.34h0ZM256.75,568.86c-14.96-15.07-23.36-35.45-23.36-56.69s8.39-41.61,23.36-56.69l11.97-11.83c11.2,17.3,24.16,33.4,38.67,48.03,6.93,6.91,14.19,13.46,21.8,19.62-7.61,6.16-14.87,12.71-21.8,19.62-14.83,14.92-27.99,31.41-39.24,49.19l-11.4-11.25ZM274.5,734.89c-.02-23.35,3.39-46.58,10.1-68.95l72.16,72.12c-26.67,8.25-54.54,11.77-82.4,10.39.29-4.19.15-8.8.15-13.56h0ZM678.46,902.37c-29.07,29.1-65.27,50.13-104.98,61.01-39.71,10.88-81.56,11.25-121.41,1.06-39.89-10.19-76.44-30.57-106.05-59.16-29.61-28.59-51.28-64.39-62.87-103.88,39.18.8,78.05-6.52,114.29-21.49l23.2,23.22c24.31,24.05,57.17,37.54,91.36,37.54s67-13.49,91.31-37.54l24.53-24.52c35.44,14.18,73.37,21.09,111.53,20.34-10.91,39.08-31.65,74.7-60.33,103.43h-.58ZM748.45,746.58c-26.67,1.34-53.38-1.78-79.07-9.23l69.72-69.67c6.28,21.84,9.44,44.48,9.35,67.22v11.68ZM755.98,581.56c-11.44-18.33-24.89-35.32-40.11-50.63-6.95-6.91-14.2-13.46-21.82-19.62,24.09-19.49,44.74-42.84,61.17-69.09l13.45,13.27c14.96,15.07,23.33,35.45,23.33,56.69s-8.37,41.61-23.33,56.69l-12.69,12.69ZM903.7,676.18c-28.67,29.09-64.42,50.22-103.73,61.31.09-1.01.09-2.02,0-3.03-.04-36.88-7.12-73.41-20.93-107.61l23.95-22.8c24.04-24.3,37.53-57.12,37.53-91.31s-13.49-67-37.53-91.31l-24.4-24.38c14.69-36.27,21.9-75.13,21.24-114.25,39.4,11.32,75.24,32.68,103.91,61.98,28.67,29.31,49.29,65.56,59.75,105.21,10.46,39.65,10.46,81.34,0,120.98-10.51,39.65-31.08,75.89-59.79,105.19h0Z"/>
</svg>